<?xml version="1.0" standalone="no"?>
<!DOCTYPE svg PUBLIC "-//W3C//DTD SVG 20010904//EN"
 "http://www.w3.org/TR/2001/REC-SVG-20010904/DTD/svg10.dtd">
<svg version="1.0" xmlns="http://www.w3.org/2000/svg"
 width="500.000000pt" height="500.000000pt" viewBox="0 0 500.000000 500.000000"
 preserveAspectRatio="xMidYMid meet">
<metadata>
Created by potrace 1.14, written by Peter Selinger 2001-2017
</metadata>
<g transform="translate(0.000000,500.000000) scale(0.100000,-0.100000)"
fill="#000000" stroke="none">
<path d="M1121 3388 c-38 -98 -592 -1421 -622 -1485 -49 -103 -110 -168 -173
-184 -44 -11 -46 -13 -46 -48 0 -20 -3 -60 -6 -88 l-7 -53 280 0 280 0 7 46
c3 26 6 73 6 105 l0 59 -90 0 c-49 0 -90 2 -90 4 0 2 22 55 49 117 26 63 56
135 65 160 l18 46 216 6 c119 4 249 7 289 7 l72 0 30 -97 c42 -136 47 -173 27
-215 -18 -37 -51 -58 -92 -58 -30 0 -31 -4 -37 -103 l-5 -77 351 2 352 3 3 98
3 97 -76 0 c-71 0 -75 1 -75 23 0 53 -73 285 -298 947 l-240 705 -91 3 c-87 3
-92 2 -100 -20z m36 -588 c20 -91 123 -446 150 -516 4 -12 -27 -14 -215 -14
l-220 0 81 203 c44 111 101 263 126 337 25 74 47 128 49 120 2 -8 15 -67 29
-130z"/>
<path d="M2136 3339 c-3 -17 -6 -62 -6 -100 l0 -69 70 0 70 0 0 -29 c0 -16 11
-66 25 -112 14 -46 113 -397 220 -779 108 -382 198 -703 201 -713 5 -16 17
-17 117 -15 l112 3 107 300 c219 612 269 758 302 883 24 90 35 120 39 102 3
-14 17 -86 31 -160 14 -74 87 -358 163 -630 l138 -495 116 -3 116 -3 253 708
c139 389 265 733 280 763 57 113 134 183 216 196 l44 6 0 43 c0 23 3 63 6 89
l7 46 -295 0 -295 0 -7 -52 c-3 -29 -6 -74 -6 -100 l0 -48 95 0 c86 0 113 -8
85 -25 -28 -17 -87 -169 -175 -446 -121 -384 -216 -671 -220 -667 -2 2 -17 77
-34 168 -17 91 -89 390 -159 665 l-128 500 -119 0 -119 0 -123 -345 c-68 -190
-173 -490 -232 -667 l-108 -323 -22 130 c-12 71 -58 296 -102 500 -43 203 -79
390 -79 415 0 66 37 104 110 113 51 7 55 9 61 37 4 17 7 56 8 88 l1 57 -379 0
-378 0 -7 -31z"/>
</g>
</svg>
